<svg width="25" height="20" viewBox="0 0 25 20" fill="none" xmlns="http://www.w3.org/2000/svg">
<path d="M0 3.49924V14.2535L3.00119 18.5052V7.75093C3.00119 6.15029 3.66812 6.0836 4.00159 6.25033L15.006 19.2555C17.0067 19.4556 19.0909 18.0884 19.7578 17.5048C19.1743 16.5044 18.0071 15.0038 18.0071 15.0038C17.607 15.604 16.5065 16.5044 15.5062 15.504L13.5054 13.003L3.00119 0.498047L0 3.49924Z" fill="white"/>
<path fill-rule="evenodd" clip-rule="evenodd" d="M5.75215 0H16.7565C20.0912 0.750298 26.2103 4.45177 24.0094 13.2553C23.6092 14.8559 21.0082 16.7567 19.7577 17.5069L5.25195 0H5.75215ZM13.0051 4.75095L19.2576 12.504C19.5911 12.8375 20.4081 13.1043 21.0083 11.5036C21.6085 9.903 20.7582 7.50204 20.258 6.50165C19.7578 5.58462 18.2072 3.70054 16.0063 3.50046C13.8054 3.30038 13.0885 3.58382 13.0051 3.75056C12.8384 3.87727 12.605 4.25476 13.0051 4.75095Z" fill="white"/>
</svg>
